<!DOCTYPE svg PUBLIC "-//W3C//DTD SVG 1.1//EN" "http://www.w3.org/Graphics/SVG/1.1/DTD/svg11.dtd">
<!-- Uploaded to: SVG Repo, www.svgrepo.com, Transformed by: SVG Repo Mixer Tools -->
<svg fill="#ffffff" height="800px" width="800px" version="1.1" id="Layer_1" xmlns="http://www.w3.org/2000/svg" xmlns:xlink="http://www.w3.org/1999/xlink" viewBox="0 0 512.004 512.004" xml:space="preserve" stroke="#ffffff">
<g id="SVGRepo_bgCarrier" stroke-width="0"/>
<g id="SVGRepo_tracerCarrier" stroke-linecap="round" stroke-linejoin="round"/>
<g id="SVGRepo_iconCarrier"> <g> <g> <path d="M512.002,277.329c0-70.56-50.337-132.851-128.165-166.361C380.53,49.132,329.337,0,266.677,0 c-61.016,0-111.134,46.563-116.794,106.088c-41.31,17.946-73.898,47.089-98.065,85.908H33.773 c-18.651,0-33.771,15.119-33.771,33.771v81.792c0,18.651,15.119,33.771,33.771,33.771h15.606 c4.328,10.327,9.202,20.085,14.622,29.256v120.086c0,11.782,9.551,21.333,21.333,21.333h128c11.782,0,21.333-9.551,21.333-21.333 v-22.029c6.94,0.451,14.047,0.687,21.336,0.687c22.055,0,43.505-2.089,63.998-6.022v27.364c0,11.782,9.551,21.333,21.333,21.333 h128c11.782,0,21.333-9.551,21.333-21.333V354.584C504.365,331.061,512.002,304.973,512.002,277.329z M266.677,42.667 c41.231,0,74.667,33.435,74.667,74.667c0,0.716-0.011,1.429-0.032,2.141c-0.345,1.263-0.583,2.578-0.695,3.943 c-1.71,20.883-12.083,39.723-28.156,52.424c-0.181,0.14-0.359,0.284-0.541,0.423c-28.435-7.523-60.367-7.216-89.243,0.834 c-18.17-13.38-29.548-34.195-30.346-57.182c-0.035-1.009-0.145-1.993-0.311-2.953C192.22,75.896,225.557,42.667,266.677,42.667z M192,469.338h-85.333v-47.907c23.427,19.657,51.848,33.573,85.333,41.168V469.338z M218.771,424.187 c-0.726-0.191-1.462-0.356-2.219-0.471c-51.912-7.924-88.716-32.035-113.176-70.806c-0.462-0.732-0.96-1.406-1.473-2.053 c-6.962-11.438-12.874-24.114-17.794-37.99c-3.019-8.514-11.073-14.204-20.107-14.204H42.669v-64h21.333 c7.737,0,14.867-4.189,18.634-10.946c17.876-32.069,41.555-56.373,71.766-72.474c5.148,16.854,14.07,32.244,25.997,45.124 c-10.408,7.094-19.576,15.649-26.934,25.681c-6.968,9.501-4.915,22.851,4.586,29.819s22.851,4.915,29.819-4.586 c8.505-11.596,21.325-20.191,36.114-25.814c0.418-0.086,0.834-0.184,1.249-0.295c0.077-0.021,0.155-0.04,0.232-0.061 c0.442-0.124,0.882-0.258,1.319-0.411c25.774-9.069,56.502-9.385,81.33-0.917c0.232,0.083,0.47,0.146,0.704,0.221 c0.258,0.082,0.517,0.164,0.777,0.235c0.468,0.131,0.939,0.242,1.415,0.341c14.402,5.383,26.401,13.826,33.525,25.322 c6.207,10.015,19.357,13.102,29.371,6.895s13.102-19.357,6.895-29.371c-6.904-11.141-16.101-20.495-26.877-28.086 c10.548-11.678,18.667-25.344,23.793-40.249c56.985,27.911,91.62,73.551,91.62,122.237c0,20.175-5.89,39.592-16.583,57.37 c-0.517,0.654-1.019,1.334-1.484,2.074c-22.299,35.494-63.869,64.12-115.776,78.895c-0.823,0.234-1.613,0.53-2.387,0.854 c-23.847,6.528-49.823,10.141-77.104,10.141C242.83,426.662,230.431,425.828,218.771,424.187z M362.667,469.338v-17.333 c32.683-11.182,61.737-27.367,85.333-47.342v64.676H362.667z"/> </g> </g> </g>
</svg>